<?xml version="1.0" standalone="no"?>
<!DOCTYPE svg PUBLIC "-//W3C//DTD SVG 20010904//EN"
 "http://www.w3.org/TR/2001/REC-SVG-20010904/DTD/svg10.dtd">
<svg version="1.0" xmlns="http://www.w3.org/2000/svg"
 width="1144.000000pt" height="1144.000000pt" viewBox="0 0 1144.000000 1144.000000"
 preserveAspectRatio="xMidYMid meet">
<metadata>
Created by potrace 1.14, written by Peter Selinger 2001-2017
</metadata>
<g transform="translate(0.000000,1144.000000) scale(0.100000,-0.100000)"
fill="#000000" stroke="none">
<path d="M8997 11425 c-2 -5 0 -24 3 -42 4 -18 5 -35 2 -38 -10 -10 -8 -215 3
-215 7 0 7 -3 0 -8 -12 -8 -14 -102 -2 -102 5 0 5 -5 1 -12 -9 -14 -12 -307
-3 -365 3 -23 2 -48 -3 -56 -5 -9 -2 -19 7 -27 8 -7 12 -16 9 -21 -21 -34 -20
-235 1 -270 5 -8 4 -10 -3 -5 -13 8 -12 -20 0 -39 4 -6 3 -17 -3 -25 -12 -21
-11 -33 3 -24 7 5 8 3 3 -6 -11 -18 -13 -60 -3 -66 5 -3 6 -9 4 -13 -4 -7 -18
-131 -18 -156 0 -5 4 -26 7 -45 4 -19 8 -662 8 -1427 1 -766 5 -1393 9 -1393
5 0 8 -9 8 -20 0 -11 -6 -20 -12 -20 -10 0 -10 -2 0 -9 9 -5 13 -31 12 -82 -1
-148 3 -198 14 -192 7 5 7 2 0 -8 -14 -18 -14 -49 0 -49 6 0 5 -4 -3 -9 -10
-6 -10 -13 -2 -28 5 -11 7 -23 4 -27 -12 -12 -12 -36 0 -36 8 0 8 -3 2 -8 -16
-11 -19 -46 -3 -36 11 6 11 5 0 -8 -9 -12 -10 -18 -2 -23 7 -4 8 -11 1 -18
-14 -18 -14 -29 1 -38 10 -7 10 -9 0 -9 -8 0 -10 -5 -6 -12 10 -16 10 -50 1
-65 -4 -6 -3 -14 3 -18 6 -4 7 -12 3 -18 -12 -19 -12 -36 -2 -43 6 -3 5 -11
-2 -20 -9 -11 -9 -14 0 -14 9 0 9 -5 1 -20 -8 -15 -8 -20 1 -20 8 0 8 -4 -1
-15 -10 -12 -10 -15 0 -15 9 0 9 -4 -1 -17 -11 -13 -11 -17 -2 -20 10 -4 10
-10 2 -25 -9 -16 -8 -19 3 -12 11 6 11 5 -1 -9 -7 -9 -9 -17 -4 -17 5 0 10 -7
10 -15 0 -8 -5 -15 -10 -15 -5 0 -4 -7 3 -15 10 -12 10 -15 0 -15 -9 0 -9 -4
-2 -13 7 -8 7 -18 2 -27 -5 -8 -5 -21 1 -32 7 -13 6 -18 -2 -18 -9 0 -9 -3 0
-14 8 -10 9 -16 1 -21 -6 -3 -8 -11 -4 -16 10 -17 12 -59 2 -65 -4 -3 -5 -11
-1 -17 11 -18 12 -37 2 -37 -6 0 -5 -8 1 -20 8 -14 8 -20 0 -20 -6 0 -8 -5 -3
-12 11 -19 11 -58 0 -58 -6 0 -6 -5 0 -12 11 -15 11 -48 0 -65 -4 -6 -3 -14 1
-17 10 -6 8 -68 -2 -85 -4 -6 -1 -11 6 -11 9 0 9 -3 -2 -10 -12 -8 -13 -13 -3
-29 6 -10 9 -22 5 -26 -11 -11 -9 -95 3 -95 7 0 7 -3 -1 -8 -15 -10 -14 -83 1
-99 17 -16 32 -17 38 0 4 9 6 9 6 -1 1 -7 6 -10 13 -6 8 5 9 2 5 -9 -4 -10 -1
-17 6 -17 8 0 6 -4 -3 -10 -11 -7 -11 -10 -2 -10 9 0 12 -10 8 -30 -2 -16 -1
-30 3 -30 8 0 11 -15 12 -67 1 -18 5 -33 10 -33 5 0 9 -5 9 -11 0 -5 -6 -7
-12 -3 -10 6 -10 4 0 -7 6 -7 12 -27 12 -44 0 -17 5 -36 12 -43 9 -9 9 -12 -1
-12 -7 0 -9 -5 -4 -12 8 -14 11 -33 16 -111 3 -41 0 -51 -19 -66 -13 -10 -21
-21 -18 -24 3 -3 -4 -8 -15 -12 -12 -3 -19 -11 -16 -16 4 -5 1 -9 -6 -9 -7 0
-9 -3 -6 -7 9 -9 -13 -34 -24 -27 -5 3 -6 -2 -3 -10 4 -11 0 -16 -15 -16 -12
0 -21 -5 -21 -10 0 -6 -12 -22 -26 -35 -14 -13 -25 -27 -25 -32 0 -4 -10 -13
-22 -20 -12 -7 -18 -12 -13 -13 6 0 -4 -12 -22 -26 -17 -15 -30 -30 -27 -33 2
-4 -12 -8 -30 -9 -28 -2 -33 1 -29 13 4 8 1 15 -6 15 -7 0 -10 6 -7 13 15 39
-2 42 -295 44 -156 1 -297 2 -314 2 -23 1 -34 7 -42 26 -9 19 -9 25 0 25 7 0
4 6 -5 13 -11 8 -17 30 -18 72 -1 33 -6 63 -11 66 -8 5 -14 51 -17 127 -1 15
-5 21 -13 16 -7 -5 -9 -2 -6 7 3 8 2 41 -3 74 -5 33 -10 74 -11 92 -1 20 -5
30 -12 26 -6 -4 -5 1 3 10 7 9 9 17 3 17 -12 0 -21 47 -23 118 -1 28 -5 52 -9
52 -4 0 -10 13 -12 30 -3 16 -1 30 4 30 5 0 6 6 1 13 -8 13 -11 27 -15 65 -1
12 -6 22 -11 22 -5 0 -6 17 -4 38 2 20 -1 46 -6 57 -6 11 -10 46 -11 78 -1 32
-6 61 -12 65 -6 4 -12 32 -13 62 -1 30 -8 61 -14 69 -10 12 -9 13 3 6 12 -7
13 -6 4 6 -15 18 -16 150 -1 167 8 10 7 16 -4 23 -8 5 -9 9 -4 9 6 0 11 15 12
33 3 107 8 149 19 165 9 12 9 22 2 36 -7 14 -7 17 2 11 9 -6 9 -2 1 14 -7 11
-8 21 -4 21 4 0 9 11 9 25 1 15 -2 22 -9 18 -6 -4 -7 -1 -1 8 5 8 9 17 10 22
1 4 3 9 4 12 1 3 4 10 5 15 1 6 4 13 5 18 1 4 1 20 0 36 -1 20 2 26 11 21 8
-6 10 -4 3 6 -11 18 -12 69 -2 63 4 -3 8 -1 8 5 0 5 -6 12 -12 14 -10 4 -9 8
2 16 13 10 13 12 1 20 -10 7 -12 13 -5 23 6 7 12 50 13 95 2 46 4 91 6 100 2
10 4 24 4 31 1 7 6 10 12 6 7 -4 10 -1 7 7 -3 8 -1 24 3 37 5 12 5 22 1 22
-12 0 -3 123 10 136 4 3 4 13 1 22 -5 11 -3 13 8 7 11 -7 12 -6 2 6 -10 12
-10 18 0 29 10 10 9 11 -3 5 -12 -7 -13 -6 -3 6 10 12 10 18 0 29 -6 7 -7 10
-2 7 6 -3 11 15 12 46 1 29 5 66 8 82 4 17 7 42 7 57 0 15 4 26 8 23 3 -2 7 2
7 10 0 8 -4 12 -8 9 -4 -2 -10 5 -14 16 -3 11 -11 20 -16 20 -5 0 -9 5 -9 11
0 5 6 7 13 4 6 -4 3 1 -7 9 -11 9 -16 16 -12 16 4 0 1 7 -8 15 -8 8 -21 15
-29 15 -9 0 -17 5 -19 11 -2 6 -40 13 -88 16 -47 3 -88 10 -91 16 -4 5 -14 7
-23 4 -9 -4 -16 -3 -16 1 0 5 -45 8 -100 8 -103 -1 -165 8 -155 23 5 9 -81 5
-96 -5 -4 -2 -10 0 -13 4 -3 5 -15 8 -28 7 -13 -1 -31 4 -40 13 -13 11 -21 12
-31 3 -16 -13 -129 -13 -121 0 3 5 -3 9 -13 10 -10 0 -28 2 -41 5 -17 3 -21 1
-16 -8 6 -10 4 -10 -7 -2 -8 6 -50 12 -94 13 -44 2 -82 6 -85 11 -6 10 -157
21 -282 21 -50 0 -78 3 -78 10 0 6 -9 9 -20 6 -11 -3 -22 -2 -25 3 -3 4 -48 8
-102 9 -63 1 -100 6 -105 14 -6 9 -10 8 -18 -3 -5 -8 -14 -16 -20 -16 -5 -1
-15 -2 -21 -3 -5 0 -7 -5 -4 -11 3 -5 3 -10 -2 -11 -37 -4 -61 -4 -58 -1 2 2
0 15 -5 28 -6 15 -6 24 0 24 6 0 6 10 0 26 -6 14 -6 23 -1 20 5 -3 7 11 4 32
-2 20 -6 59 -7 86 -2 27 -9 52 -17 57 -9 5 -10 9 -2 9 12 0 12 17 0 38 -5 7
-3 12 4 12 9 0 9 3 0 14 -9 11 -9 15 1 19 9 4 9 6 1 6 -8 1 -9 10 -3 30 4 15
5 33 1 40 -4 6 -6 24 -5 41 1 16 -2 30 -6 30 -4 0 -9 55 -9 122 -1 67 -7 128
-12 135 -6 6 -8 17 -5 22 4 5 2 12 -3 15 -5 3 -9 81 -9 174 0 177 -1 193 -17
204 -6 5 -4 8 5 8 13 1 13 2 -1 13 -21 16 -24 28 -7 38 7 5 8 9 3 9 -10 0 -16
49 -18 137 0 23 -5 39 -10 36 -5 -3 -5 2 0 13 5 11 8 25 7 32 -1 6 -2 19 -3
28 0 8 -5 12 -11 9 -5 -3 -10 3 -10 14 0 12 -6 21 -12 21 -10 0 -9 3 1 9 11 7
9 10 -8 16 -12 3 -19 10 -16 15 3 5 -4 11 -15 15 -11 4 -17 11 -14 17 5 7 2 9
-8 6 -8 -4 -28 2 -44 11 -32 20 -54 17 -54 -6 0 -12 -3 -13 -13 -4 -8 6 -17 8
-20 4 -4 -3 -51 -6 -104 -6 -59 1 -104 -4 -112 -11 -12 -8 -13 -8 -7 2 4 6 3
12 -3 12 -5 0 -12 -4 -15 -9 -3 -4 -53 -9 -111 -9 -99 0 -158 -7 -180 -20 -17
-10 -45 -9 -45 2 0 6 -4 5 -9 -3 -6 -9 -11 -10 -15 -2 -5 7 -13 8 -25 1 -12
-6 -22 -5 -29 2 -9 9 -12 9 -12 0 0 -14 -21 -12 -32 3 -5 6 -8 5 -8 -4 0 -10
-3 -11 -14 -2 -10 9 -16 8 -26 -4 -7 -8 -21 -15 -33 -15 -11 0 -28 -10 -38
-22 -11 -11 -19 -17 -19 -13 0 4 -11 -4 -24 -18 -13 -14 -26 -24 -28 -21 -3 2
-4 -11 -3 -30 0 -19 -3 -32 -9 -29 -13 9 3 -121 19 -147 3 -6 1 -10 -6 -10
-10 0 -10 -3 -1 -12 7 -7 8 -17 1 -30 -7 -13 -6 -18 3 -18 10 0 10 -2 0 -9
-15 -9 -15 -20 0 -38 7 -9 7 -13 -1 -13 -7 0 -9 -5 -6 -11 4 -6 8 -31 10 -56
1 -25 6 -48 11 -52 11 -7 12 -81 1 -74 -7 4 1 -65 10 -79 2 -5 -1 -8 -7 -8 -6
0 -8 -5 -3 -12 14 -23 16 -42 20 -163 3 -71 9 -125 16 -134 9 -12 9 -13 0 -7
-9 5 -11 2 -7 -8 3 -9 10 -16 14 -16 4 0 7 -42 7 -94 -1 -62 -5 -92 -12 -88
-5 3 -4 -1 2 -10 7 -8 10 -18 6 -21 -3 -4 0 -7 7 -7 7 0 10 -3 7 -7 -4 -3 -2
-12 4 -20 9 -10 8 -13 0 -13 -7 0 -9 -5 -4 -12 10 -17 10 -298 1 -291 -11 6
-10 -5 3 -29 6 -11 7 -18 2 -15 -10 6 -14 -23 -14 -93 0 -53 -8 -82 -20 -74
-8 4 -8 1 0 -13 7 -14 7 -23 -2 -32 -9 -9 -8 -14 3 -21 11 -7 11 -10 2 -10
-10 0 -10 -5 -1 -21 7 -14 7 -19 0 -15 -6 4 -10 -3 -9 -16 3 -75 -3 -108 -18
-108 -12 0 -14 -4 -6 -12 5 -7 6 -22 2 -33 -4 -11 -4 -30 1 -42 5 -13 5 -23 1
-23 -4 0 -7 -19 -8 -43 -3 -110 -9 -187 -15 -187 -4 0 -7 -12 -6 -27 0 -16 -4
-37 -8 -47 -6 -15 -5 -17 5 -11 9 5 11 4 6 -3 -11 -18 -15 -48 -17 -118 -1
-35 -5 -64 -10 -64 -4 0 -6 -12 -5 -27 2 -16 -2 -31 -8 -35 -8 -6 -7 -8 2 -8
6 0 12 -5 12 -11 0 -5 -6 -7 -12 -3 -10 6 -10 4 0 -8 9 -11 10 -18 2 -23 -5
-3 -10 -11 -10 -16 0 -6 5 -7 12 -3 7 5 8 3 3 -7 -9 -14 -15 -55 -15 -97 0
-13 -4 -21 -8 -18 -5 3 -8 -5 -7 -17 1 -12 -3 -28 -9 -36 -8 -11 -8 -13 0 -8
7 4 11 -2 12 -18 0 -16 -5 -22 -12 -18 -7 4 -6 1 1 -8 10 -12 10 -18 1 -27 -9
-9 -9 -12 2 -12 13 0 13 -2 0 -10 -13 -9 -13 -10 0 -10 11 0 12 -2 3 -8 -8 -5
-13 -41 -15 -97 -2 -72 -6 -89 -17 -87 -12 3 -12 0 -1 -12 8 -11 9 -16 1 -16
-6 0 -11 -7 -11 -16 0 -8 5 -12 10 -9 6 3 10 1 10 -4 0 -6 -4 -11 -10 -11 -5
0 -7 -6 -4 -13 3 -8 -3 -20 -12 -28 -13 -11 -18 -11 -21 -2 -4 10 -8 10 -19
-1 -8 -8 -23 -12 -35 -9 -13 4 -20 2 -16 -4 7 -11 -22 -11 -41 1 -15 9 -16 80
-1 108 9 16 8 19 -3 12 -10 -6 -10 -4 1 10 10 11 15 48 17 107 2 56 7 96 16
107 11 13 11 14 -1 7 -10 -6 -12 -4 -6 5 5 7 9 45 11 84 1 39 6 82 11 96 5 14
8 34 8 45 0 11 4 23 10 27 7 5 6 8 -1 8 -16 0 -16 71 -1 89 10 12 9 13 -3 6
-13 -7 -12 -5 1 11 11 13 16 44 18 104 2 47 7 90 13 97 5 7 9 34 8 60 -1 26
-1 53 0 58 6 27 4 41 -5 54 -7 11 -7 13 3 7 8 -5 12 0 12 18 0 14 5 28 10 31
6 3 10 11 10 16 0 6 -5 7 -12 3 -7 -4 -8 -3 -4 4 13 21 15 52 4 52 -6 0 -5 7
3 17 12 14 12 15 1 9 -11 -7 -12 -4 -3 12 6 12 10 25 9 29 -1 4 2 28 6 53 5
24 9 73 9 107 0 37 4 60 10 56 6 -4 8 5 5 20 -3 15 -1 24 3 21 5 -3 9 4 9 15
0 12 -7 21 -15 21 -11 0 -15 11 -15 37 0 20 -8 45 -17 56 -11 12 -12 17 -4 12
10 -5 12 -4 7 3 -4 7 -13 12 -21 12 -8 0 -20 9 -28 20 -8 11 -17 17 -22 12 -4
-4 -6 0 -3 8 6 17 -5 19 -75 21 -21 0 -40 6 -43 13 -3 8 -37 13 -112 15 -58 1
-109 7 -112 12 -4 5 -32 11 -64 14 -44 4 -56 2 -50 -7 6 -10 4 -10 -7 -2 -8 5
-32 12 -54 13 -22 2 -43 8 -47 14 -6 9 -8 8 -8 -2 0 -11 -3 -11 -17 0 -15 12
-16 12 -8 -1 8 -13 6 -13 -8 -2 -9 8 -22 12 -29 9 -7 -2 -21 0 -30 4 -10 6
-19 5 -23 -1 -4 -7 -12 -7 -25 0 -10 5 -28 10 -39 10 -12 0 -30 6 -41 13 -15
9 -22 9 -28 1 -8 -13 -94 -15 -102 -3 -8 12 -52 18 -141 20 -43 1 -79 6 -79
12 0 5 -11 7 -25 5 -14 -3 -25 -2 -25 1 0 3 -28 7 -63 7 -78 2 -107 6 -107 15
0 6 -108 12 -192 11 -10 -1 -18 6 -18 14 0 8 -4 14 -10 14 -5 0 -10 -5 -10
-11 0 -6 -12 -10 -27 -9 -86 6 -125 0 -130 -20 -3 -11 -10 -17 -17 -13 -6 4
-4 -2 4 -12 8 -10 10 -16 3 -12 -7 5 -12 1 -11 -10 0 -10 -2 -28 -5 -40 -3
-12 -7 -53 -8 -90 -2 -37 -5 -72 -8 -78 -8 -15 -10 -31 -15 -127 -2 -48 -8
-93 -12 -100 -5 -7 -9 -38 -10 -68 -1 -30 -5 -82 -10 -115 -4 -33 -8 -63 -8
-67 -1 -3 -4 -9 -8 -13 -4 -4 -2 -15 4 -25 9 -14 9 -22 -1 -34 -10 -12 -11
-19 -2 -29 6 -8 8 -17 4 -21 -10 -10 -14 -34 -19 -111 -5 -85 -8 -107 -16
-120 -3 -6 -6 -37 -7 -70 0 -52 -5 -94 -11 -102 -2 -2 -4 -7 -5 -13 -1 -5 -4
-11 -5 -12 -2 -2 -4 -34 -5 -73 -1 -38 -6 -86 -10 -105 -5 -19 -9 -64 -10
-101 -1 -36 -5 -71 -10 -79 -6 -9 -4 -11 4 -5 10 6 11 3 1 -15 -15 -28 -20
-90 -8 -90 5 0 6 -5 2 -12 -4 -7 -9 -28 -10 -48 -3 -59 -4 -61 -12 -56 -5 3
-9 -1 -9 -9 0 -8 5 -11 11 -8 8 5 8 3 0 -8 -6 -8 -12 -50 -13 -94 -1 -45 -8
-92 -16 -109 -11 -21 -12 -33 -4 -48 9 -16 8 -19 -2 -13 -9 6 -11 2 -7 -13 4
-12 2 -24 -2 -27 -5 -3 -7 -15 -5 -26 2 -11 -2 -22 -9 -25 -8 -3 -16 -19 -20
-35 -3 -17 -10 -28 -15 -25 -5 3 -12 -10 -15 -29 -4 -19 -12 -35 -18 -35 -6 0
-5 -7 3 -17 8 -9 9 -14 2 -10 -7 5 -14 -4 -18 -24 -6 -24 -9 -28 -17 -18 -7
10 -8 6 -5 -14 3 -19 -1 -32 -13 -40 -9 -7 -16 -20 -14 -29 1 -10 -2 -20 -7
-24 -5 -3 -7 -10 -4 -15 4 -5 0 -12 -9 -15 -8 -3 -18 -19 -21 -35 -4 -16 -11
-27 -16 -23 -5 3 -9 -4 -9 -14 0 -25 -57 -142 -69 -142 -5 0 -7 -10 -3 -22 4
-16 2 -19 -9 -13 -11 7 -11 5 1 -11 8 -10 10 -16 6 -12 -5 4 -20 -25 -34 -65
-13 -39 -31 -80 -40 -89 -8 -10 -11 -18 -7 -18 4 0 0 -9 -9 -19 -10 -11 -15
-24 -12 -30 4 -5 0 -13 -7 -18 -19 -11 -39 -51 -32 -63 3 -6 1 -10 -5 -10 -8
0 -10 -9 -6 -25 8 -30 43 -27 -331 -27 l-271 -1 -5 -24 c-2 -13 -4 -49 -3 -79
1 -29 -1 -54 -5 -54 -7 0 -3 -49 5 -57 2 -3 1 -16 -4 -29 -6 -14 -6 -26 1 -29
5 -4 6 -13 0 -22 -4 -9 -5 -31 -1 -49 5 -23 4 -34 -4 -34 -6 0 -4 -5 4 -10 10
-6 11 -10 3 -10 -7 0 -13 -7 -13 -16 0 -9 5 -12 13 -8 9 6 9 5 0 -7 -10 -12
-10 -18 0 -29 10 -10 9 -11 -2 -5 -10 6 -12 4 -7 -4 5 -8 28 -12 60 -11 28 1
56 1 61 0 6 -1 13 -2 18 -1 6 1 12 -78 9 -121 -1 -10 2 -18 8 -18 8 0 8 -7 0
-45 -1 -5 -2 -12 0 -15 1 -3 3 -32 5 -65 2 -33 6 -69 8 -80 3 -11 -1 -26 -7
-34 -6 -9 -7 -12 -1 -9 7 5 11 -46 12 -153 1 -91 7 -167 13 -179 8 -15 8 -20
-1 -20 -8 0 -8 -4 1 -15 10 -12 10 -15 -1 -15 -9 0 -10 -3 -4 -8 6 -4 10 -43
9 -87 0 -44 3 -87 7 -96 5 -9 3 -21 -3 -27 -9 -9 -9 -12 1 -12 9 0 10 -4 4
-12 -10 -16 -10 -98 0 -115 5 -8 3 -13 -5 -13 -10 0 -10 -2 1 -9 9 -6 10 -10
2 -16 -9 -5 -9 -10 0 -21 9 -11 9 -14 -1 -14 -10 0 -10 -3 0 -15 9 -10 9 -15
1 -15 -13 0 -10 -22 4 -32 6 -5 5 -15 -3 -29 -8 -11 -10 -19 -5 -16 5 3 10
-56 10 -133 1 -76 6 -147 12 -157 7 -14 7 -23 -1 -31 -7 -7 -8 -12 -3 -12 13
0 13 -280 1 -299 -7 -10 -6 -12 4 -6 10 6 12 0 8 -24 -3 -18 0 -31 6 -31 6 0
4 -5 -4 -10 -11 -7 -11 -10 -2 -10 7 0 10 -5 7 -11 -11 -17 -12 -68 -2 -62 5
3 6 -4 2 -16 -3 -12 0 -34 8 -51 9 -16 12 -28 9 -27 -4 1 -7 -2 -7 -8 0 -5 4
-9 8 -7 5 1 5 -3 0 -10 -10 -17 -11 -29 -1 -56 5 -15 4 -21 -2 -17 -11 7 -9
-23 2 -40 4 -6 3 -17 -2 -25 -5 -9 -5 -19 2 -27 6 -7 6 -13 1 -13 -10 0 -10
-41 1 -58 4 -7 2 -12 -5 -12 -8 0 -8 -4 1 -15 10 -12 10 -15 -1 -15 -11 0 -11
-2 1 -10 8 -5 10 -10 4 -10 -12 0 -11 -111 2 -131 4 -8 3 -9 -4 -5 -13 8 -12
-20 1 -41 5 -7 4 -13 0 -13 -5 0 -9 -9 -9 -20 0 -11 3 -20 6 -20 10 0 6 -55
-5 -62 -7 -5 -7 -8 0 -8 6 0 11 -10 11 -22 1 -13 5 -43 8 -66 5 -33 4 -42 -5
-36 -8 5 -9 3 -3 -7 14 -23 15 -52 2 -61 -8 -4 -9 -8 -2 -8 15 0 15 -101 1
-119 -9 -11 -9 -13 0 -8 10 6 12 -27 11 -142 -1 -116 2 -154 13 -167 12 -16
12 -17 -1 -9 -12 7 -13 6 -4 -6 7 -8 11 -60 10 -131 -1 -73 3 -118 9 -118 7 0
7 -3 0 -8 -8 -6 -12 -113 -5 -132 6 -16 5 -50 -1 -50 -4 0 -4 -13 1 -30 6 -21
5 -30 -3 -30 -8 0 -7 -3 2 -9 11 -7 11 -9 0 -14 -8 -3 1458 -6 3256 -6 l3271
-1 2 62 c1 33 8 74 16 89 10 20 11 29 2 33 -7 3 -6 5 3 5 11 1 11 4 1 16 -9
10 -9 15 -1 15 6 0 11 7 11 16 0 9 -5 12 -12 8 -9 -5 -9 -2 1 9 11 14 11 17 0
17 -12 0 -12 2 0 9 9 6 10 11 2 15 -8 5 -8 13 -1 27 8 14 7 19 -2 19 -9 0 -9
3 2 10 13 9 13 11 0 20 -12 8 -12 10 -1 10 11 0 11 3 0 17 -10 11 -10 14 -1 9
15 -9 16 6 0 22 -9 9 -9 12 2 12 13 0 13 2 0 10 -13 9 -13 10 0 10 13 0 13 1
0 10 -12 8 -12 10 -1 10 10 0 11 3 2 13 -8 10 -7 17 1 25 9 9 9 12 -1 12 -11
0 -11 3 0 17 12 15 12 16 -1 8 -13 -8 -13 -7 -1 8 10 13 10 17 1 17 -10 0 -10
3 0 15 10 12 10 15 -1 15 -11 0 -11 2 1 10 13 9 13 10 0 10 -9 0 -11 3 -5 8 6
4 11 13 13 20 12 59 15 104 15 214 0 92 3 126 11 121 8 -5 8 -3 0 8 -16 19
-16 99 -1 99 9 0 9 2 1 8 -15 9 -14 133 1 124 5 -3 5 1 -2 9 -17 21 -13 81 6
103 17 19 17 22 -2 45 -7 9 -7 12 -1 8 7 -4 10 23 10 84 -1 52 -5 89 -11 89
-7 0 -7 3 0 8 13 9 16 42 4 42 -6 0 -6 7 -1 17 9 19 9 54 -1 69 -3 5 -2 28 2
51 5 23 5 47 0 54 -4 7 -5 18 -1 23 3 6 7 35 9 66 3 65 6 81 16 97 4 6 3 15
-3 18 -8 5 -8 11 0 20 8 9 8 15 0 20 -6 3 -7 12 -3 18 11 17 12 110 1 124 -5
7 -5 14 0 17 5 3 10 83 10 177 0 94 4 174 9 178 5 3 8 56 8 118 0 73 3 109 10
106 5 -3 4 0 -2 8 -16 16 -17 33 -2 23 8 -5 8 -1 0 14 -14 26 -14 35 0 26 8
-5 8 -1 0 14 -13 25 -14 35 -2 28 5 -4 8 2 6 11 -2 10 -4 18 -5 18 -1 0 -3 17
-5 37 -2 25 1 36 8 31 6 -3 7 -1 3 6 -14 21 -18 63 -5 56 8 -6 8 -2 0 13 -14
26 -14 35 -1 27 7 -4 7 3 0 19 -7 19 -6 26 3 26 8 0 7 4 -3 10 -10 7 -11 10
-2 10 7 0 12 11 10 27 -2 36 11 75 23 68 5 -4 9 -2 9 4 0 5 11 8 25 7 13 -2
22 1 19 5 -3 5 1 9 8 9 11 0 10 2 0 9 -11 7 -11 9 2 14 9 4 16 16 16 27 0 18
10 24 31 22 4 -1 4 8 1 20 -3 14 -1 19 6 14 6 -3 13 3 17 14 4 11 10 18 15 15
4 -3 11 7 14 21 5 18 12 24 22 20 8 -3 12 -2 9 3 -3 6 7 17 22 26 16 9 39 34
52 55 14 22 28 37 33 34 4 -3 5 2 2 10 -6 15 6 21 31 16 5 -1 7 1 3 5 -4 4 2
16 12 28 11 11 17 23 15 27 -2 4 12 14 32 24 19 9 33 19 30 22 -3 3 15 25 39
49 24 24 44 49 44 55 0 6 5 8 10 5 6 -3 10 -1 10 5 0 20 38 53 52 45 10 -6 10
-5 1 5 -10 11 -6 18 17 35 16 12 27 25 23 28 -3 4 3 7 15 7 12 0 21 3 20 8 -5
14 37 72 48 68 7 -3 18 9 24 25 7 16 19 29 26 29 8 0 14 5 14 11 0 13 46 70
51 64 2 -2 15 12 29 31 14 18 33 36 43 40 13 4 17 12 14 25 -3 10 -1 17 4 13
5 -3 9 0 9 6 0 6 5 8 12 4 8 -5 9 -2 5 10 -4 10 -3 15 3 11 5 -3 19 9 30 27
11 18 23 32 27 31 5 -2 8 2 8 7 0 6 7 15 15 20 13 9 13 10 0 10 -9 0 -11 3 -5
8 13 9 17 132 4 132 -5 0 -9 8 -9 19 0 22 -23 44 -35 33 -5 -4 -5 1 -2 11 4
11 1 17 -8 17 -8 0 -21 10 -30 23 -8 12 -18 21 -20 20 -3 -2 -4 -1 -2 1 5 10
-54 47 -64 40 -8 -4 -9 -3 -5 4 4 7 1 12 -6 12 -9 0 -13 10 -12 30 1 17 -1 30
-5 30 -3 0 -6 21 -6 48 -1 26 -5 56 -10 67 -11 26 -16 51 -17 103 -1 23 -5 42
-9 42 -4 0 -7 16 -7 36 0 20 -4 39 -9 43 -5 3 -9 17 -10 31 -2 46 -15 125 -22
135 -4 6 -7 34 -6 63 0 28 -3 52 -7 52 -4 0 -8 18 -8 39 0 22 -5 41 -12 44
-10 3 -10 7 -1 17 7 8 8 21 3 34 -4 11 -8 24 -9 29 0 4 -1 8 -2 10 0 1 -2 9
-4 17 -2 8 -8 36 -14 61 -6 25 -9 56 -6 68 2 11 1 21 -3 21 -8 0 -12 22 -15
68 0 12 -4 22 -7 22 -3 0 -5 27 -5 59 1 33 -2 58 -5 56 -4 -2 -7 10 -7 28 -1
49 -7 87 -14 87 -3 0 -5 10 -5 23 1 12 0 27 -3 32 -12 22 -11 46 1 39 10 -6
10 -4 0 8 -10 12 -10 18 -1 23 8 6 7 10 -2 16 -11 7 -11 9 -1 9 7 0 10 5 7 10
-3 6 0 10 7 10 9 0 9 3 -2 10 -13 9 -13 10 0 10 13 0 13 1 0 10 -8 5 -10 10
-5 10 6 0 12 21 13 48 7 99 10 127 12 127 1 0 3 18 4 40 1 23 6 46 10 53 4 7
3 12 -1 12 -12 0 -10 53 2 62 7 5 6 8 -1 8 -6 0 -10 15 -10 34 0 19 4 32 8 30
5 -3 8 0 8 5 0 6 -4 11 -9 11 -6 0 -4 12 4 26 7 15 11 33 8 42 -4 9 -2 13 4 9
5 -3 10 0 10 8 0 8 -4 12 -9 9 -4 -3 -8 0 -8 5 0 6 6 11 13 11 8 0 8 3 -2 9
-10 7 -12 14 -5 23 5 7 10 42 9 78 0 36 4 68 9 71 5 4 10 56 11 116 1 60 5
115 10 123 6 9 4 11 -4 5 -10 -6 -11 -3 -2 14 7 11 9 21 6 21 -3 0 -1 8 4 18
7 13 7 22 0 29 -8 8 -8 17 0 31 6 11 11 39 11 62 0 30 3 39 13 34 9 -6 9 -4
-1 8 -13 16 -12 44 2 67 5 7 5 16 0 20 -10 7 -11 31 -2 46 4 6 6 36 5 68 -1
31 0 57 3 57 6 0 12 48 12 98 0 17 5 32 12 32 6 0 4 5 -4 10 -8 5 -10 10 -4
10 13 0 13 42 -1 52 -7 5 -6 8 1 8 5 0 9 14 8 30 -1 17 2 33 7 36 5 3 5 13 -1
24 -7 13 -7 21 1 26 8 4 7 9 -2 15 -8 5 -9 9 -3 9 11 0 11 2 15 58 1 18 6 35
11 38 5 3 5 11 0 17 -11 14 -12 47 -2 47 3 0 6 35 5 78 0 42 3 83 8 90 6 8 5
12 -4 12 -11 0 -11 2 -1 8 7 5 13 26 14 48 0 21 5 44 10 51 5 7 6 18 2 24 -9
15 -12 69 -3 69 3 0 5 32 4 71 0 39 3 73 7 75 5 3 8 14 8 25 0 10 6 19 13 19
8 0 8 3 -2 9 -12 8 -12 12 -2 24 9 11 9 17 0 22 -8 6 -7 10 2 16 9 6 10 9 2 9
-12 0 -12 17 0 38 5 7 3 12 -3 12 -6 0 -8 5 -4 12 5 7 8 22 8 33 0 11 -3 26
-8 33 -4 7 -2 12 4 12 6 0 8 5 5 10 -3 6 -1 10 6 10 9 0 9 3 0 14 -8 9 -8 15
-2 18 6 1 12 37 13 78 1 41 7 81 12 89 8 11 8 13 0 8 -8 -4 -11 2 -10 18 0 14
4 25 8 25 3 0 5 18 3 40 -2 23 1 40 7 40 7 0 7 4 1 13 -6 6 -9 38 -8 70 1 31
-2 57 -7 57 -4 0 -8 5 -8 11 0 5 5 7 11 3 8 -5 8 -1 0 14 -14 27 -14 35 1 26
7 -5 8 -3 3 6 -12 19 -5 296 8 317 4 6 3 14 -1 17 -8 4 -9 50 -2 66 1 3 1 10
0 15 -8 32 -5 135 4 135 7 0 8 3 1 8 -6 4 -11 25 -12 47 -1 22 -3 64 -6 93 -2
29 0 55 5 58 4 3 5 11 1 17 -11 17 -10 71 2 79 6 5 5 8 -2 8 -7 0 -13 7 -13
16 0 9 5 12 13 8 9 -6 9 -4 1 7 -7 9 -11 97 -12 264 0 293 -9 464 -24 482 -7
9 -7 18 3 31 7 9 9 14 4 9 -5 -4 -15 7 -22 24 -8 19 -17 28 -24 23 -8 -4 -9
-3 -5 4 4 7 2 12 -3 12 -6 0 -10 3 -9 8 4 15 -14 52 -25 52 -14 0 -47 35 -47
50 0 6 -13 10 -30 10 -16 0 -30 5 -30 11 0 5 -4 7 -10 4 -5 -3 -10 -3 -10 2 0
4 -25 9 -55 9 -36 1 -53 -2 -48 -9 4 -6 1 -7 -8 -1 -20 13 -198 12 -202 -1z
m23 -845 c0 -5 -5 -10 -11 -10 -5 0 -7 5 -4 10 3 6 8 10 11 10 2 0 4 -4 4 -10z"/>
</g>
</svg>
